<?xml version="1.0" encoding="UTF-8"?>
<svg xmlns="http://www.w3.org/2000/svg" xmlns:xlink="http://www.w3.org/1999/xlink"  version="1.1"  width="32" height="32" viewBox="-60 -125 120 250" pointer-events="painted" >
<g pointer-events="stroke"><path d="M -67.29743110574127 -39.38809542879736 a 22.43247703524709 19.69404771439868 0 1 1 22.43247703524709 -19.69404771439868 c 2.243247703524709 -26.171223207788273 42.62170636696947 -26.171223207788273 44.86495407049418 0 c 2.243247703524709 -26.171223207788273 42.62170636696947 -26.171223207788273 44.86495407049418 0 a 22.43247703524709 19.69404771439868 0 1 1 22.43247703524709 19.69404771439868 c 22.976389000131807 1.9694047714398693 22.976389000131807 37.418690657357516 0 39.388095428797385 c 22.976389000131807 1.9694047714398693 22.976389000131807 37.418690657357516 0 39.388095428797385 a 22.43247703524709 19.69404771439868 0 1 1 -22.43247703524709 19.69404771439868 c -2.243247703524709 26.171223207788273 -42.62170636696947 26.171223207788273 -44.86495407049418 0 c -2.243247703524709 26.171223207788273 -42.62170636696947 26.171223207788273 -44.86495407049418 0 a 22.43247703524709 19.69404771439868 0 1 1 -22.43247703524709 -19.69404771439868 c -22.976389000131807 -1.9694047714398693 -22.976389000131807 -37.418690657357516 0 -39.388095428797385 c -22.976389000131807 -1.9694047714398693 -22.976389000131807 -37.418690657357516 0 -39.388095428797385 z" stroke-width="12" stroke="#575E75" fill="none" ></path>
</g></svg>
