<svg version="1.1" xmlns="http://www.w3.org/2000/svg" xmlns:xlink="http://www.w3.org/1999/xlink" viewBox="0 -10 172 180"><g transform="translate(0.516,0.516) scale(0.994,0.994)"><g fill="none" fill-rule="nonzero" stroke="none" stroke-width="1" stroke-linecap="butt" stroke-linejoin="none" stroke-miterlimit="10" stroke-dasharray="" stroke-dashoffset="0" font-family="none" font-weight="none" font-size="none" text-anchor="none" style="mix-blend-mode: normal"><g id="original-icon 1" fill="#575e75" stroke="#575e75" stroke-linejoin="round"><path d="M99.52485,30.96h50.46453l-11.02547,-11.13969c-0.9978,-0.98198 -1.30106,-2.47065 -0.76691,-3.7647c0.53415,-1.29405 1.79916,-2.13538 3.1991,-2.12764c0.92844,0.00539 1.81529,0.38582 2.45906,1.05484l16.52813,16.68937c0.2375,0.18426 0.44983,0.39884 0.63156,0.63828l2.06937,2.08953l-2.05594,2.0761c-0.18335,0.24224 -0.39798,0.45913 -0.63828,0.645l-16.90437,17.06562c-0.85923,0.90159 -2.13863,1.26841 -3.34505,0.95905c-1.20641,-0.30936 -2.15143,-1.24658 -2.47078,-2.45038c-0.31934,-1.20381 0.03685,-2.48621 0.93129,-3.35288l11.38828,-11.5025h-50.48469c-1.09194,8.68352 -6.24645,16.07478 -13.50469,20.29063v9.35922c2.05757,-1.22974 4.32526,-2.12985 6.88,-2.12985c5.04211,0 9.29429,2.88645 11.69063,6.96735c2.42343,-2.12155 5.50081,-3.52735 8.94937,-3.52735c5.97889,0 11.05049,3.90257 12.9336,9.26515c2.20433,-1.50342 4.8565,-2.38515 7.7064,-2.38515c7.55883,0 13.76,6.20117 13.76,13.76v44.72672c0,17.0573 -13.90322,30.95328 -30.96,30.95328l-25.02735,-0.00672c-11.85638,-0.00373 -23.22775,-4.71088 -31.61172,-13.09485l-39.08969,-39.08969c-5.34545,-5.34545 -5.34545,-14.11877 0,-19.46422c5.34545,-5.34545 14.11877,-5.34545 19.46422,0l17.78453,17.79125v-53.12515c-8.20034,-4.76411 -13.76,-13.58826 -13.76,-23.73063c0,-15.15815 12.36185,-27.52 27.52,-27.52c13.99154,0 25.58079,10.53805 27.28485,24.08zM51.6,34.4c0,6.12327 2.66434,11.58 6.88,15.34563v-15.34563c0,-7.55883 6.20117,-13.76 13.76,-13.76c7.55883,0 13.76,6.20117 13.76,13.76v15.3389c4.12273,-3.68366 6.73935,-8.98559 6.85313,-14.9425c-0.00001,-0.00448 -0.00001,-0.00896 0,-0.01344c-0.0278,-0.26143 -0.02555,-0.52518 0.00672,-0.78609c-0.21546,-11.25008 -9.31609,-20.23688 -20.61985,-20.23688c-11.43993,0 -20.64,9.20007 -20.64,20.64zM65.36,34.4v85.16015c0.01839,1.47709 -0.90822,2.80104 -2.3023,3.28958c-1.39408,0.48854 -2.94442,0.0326 -3.85208,-1.13286l-23.38125,-23.38125c-2.71791,-2.71791 -7.01084,-2.71791 -9.72875,0c-2.71791,2.7179 -2.71791,7.01084 0,9.72875l39.08969,39.08969c7.09603,7.09603 16.71156,11.07606 26.74734,11.07922l25.02735,0.00672c13.33906,0 24.08,-10.73474 24.08,-24.07328v-44.72672c0,-3.84133 -3.03867,-6.88 -6.88,-6.88c-3.84133,0 -6.88,3.03867 -6.88,6.88v3.44c0.01754,1.24059 -0.63425,2.39452 -1.7058,3.01993c-1.07155,0.62541 -2.39684,0.62541 -3.46839,0c-1.07155,-0.62541 -1.72335,-1.77935 -1.7058,-3.01993v-10.32c0,-3.84133 -3.03867,-6.88 -6.88,-6.88c-3.84133,0 -6.88,3.03867 -6.88,6.88v3.44c0.0006,0.08068 -0.00164,0.16135 -0.00672,0.24187c-0.00547,0.11471 -0.01668,0.22907 -0.0336,0.34266c-0.03587,0.227 -0.09439,0.44983 -0.17469,0.66515c-0.08028,0.21331 -0.18156,0.41812 -0.30235,0.61141c-0.12039,0.19482 -0.25994,0.37713 -0.41656,0.54422c-0.07875,0.08475 -0.16172,0.16548 -0.2486,0.24187c-0.08828,0.07399 -0.18022,0.14351 -0.27547,0.20828c-0.0931,0.0675 -0.18952,0.13029 -0.2889,0.18813c-0.39966,0.22623 -0.84056,0.37015 -1.29672,0.42328c-0.22764,0.02504 -0.45722,0.0273 -0.68531,0.00672c-0.11482,-0.0077 -0.22919,-0.02115 -0.34266,-0.04031c-0.11326,-0.02123 -0.22538,-0.04814 -0.33594,-0.08063c-0.221,-0.06573 -0.43484,-0.15352 -0.63828,-0.26203c-0.40537,-0.21356 -0.76401,-0.50595 -1.05485,-0.86c-0.36545,-0.44665 -0.61267,-0.97806 -0.7189,-1.54531c-0.02141,-0.11336 -0.03711,-0.22772 -0.04703,-0.34266c-0.01017,-0.11392 -0.01466,-0.22828 -0.01344,-0.34265v-6.88c0,-3.84133 -3.03867,-6.88 -6.88,-6.88c-3.84133,0 -6.88,3.03867 -6.88,6.88v6.88c0.0006,0.08068 -0.00164,0.16135 -0.00672,0.24187c-0.00547,0.11471 -0.01668,0.22907 -0.0336,0.34266c-0.05329,0.34062 -0.15747,0.67129 -0.30906,0.98094c-0.05108,0.10125 -0.10714,0.19991 -0.16797,0.29563c-0.06022,0.09724 -0.12524,0.19142 -0.19484,0.28219c-0.0695,0.09098 -0.1435,0.17843 -0.22172,0.26203c-0.07875,0.08475 -0.16172,0.16548 -0.2486,0.24187c-0.08828,0.07399 -0.18022,0.14351 -0.27547,0.20828c-0.0931,0.0675 -0.18952,0.13029 -0.2889,0.18813c-0.10037,0.05665 -0.20352,0.10823 -0.30906,0.15453c-0.31398,0.13833 -0.64688,0.22891 -0.98766,0.26875c-0.11381,0.01242 -0.22817,0.01914 -0.34265,0.02016c-0.22966,0.00501 -0.45924,-0.013 -0.68531,-0.05375c-0.34013,-0.06455 -0.66857,-0.18007 -0.97422,-0.34265c-0.20239,-0.10614 -0.3937,-0.23218 -0.57109,-0.37625c-0.08901,-0.07404 -0.17422,-0.15252 -0.25531,-0.23515c-0.08017,-0.07908 -0.15641,-0.16204 -0.22844,-0.24859c-0.07418,-0.09046 -0.1437,-0.18465 -0.20828,-0.28219c-0.06311,-0.09557 -0.12142,-0.19424 -0.17469,-0.29562c-0.26829,-0.50911 -0.40459,-1.07739 -0.3964,-1.65281v-51.6c0,-3.84133 -3.03867,-6.88 -6.88,-6.88c-3.84133,0 -6.88,3.03867 -6.88,6.88z"></path></g><path d="M0,172v-172h172v172z" fill="none" stroke="none" stroke-linejoin="miter"></path><g id="original-icon" fill="#575e75" stroke="none" stroke-linejoin="miter"><path d="M72.24,6.88c-15.15815,0 -27.52,12.36185 -27.52,27.52c0,10.14237 5.55966,18.96652 13.76,23.73063v53.12515l-17.78453,-17.79125c-5.34545,-5.34545 -14.11877,-5.34545 -19.46422,0c-5.34545,5.34545 -5.34545,14.11877 0,19.46422l39.08969,39.08969c8.38397,8.38397 19.75534,13.09112 31.61172,13.09485l25.02735,0.00672c17.05678,0 30.96,-13.89599 30.96,-30.95328v-44.72672c0,-7.55883 -6.20117,-13.76 -13.76,-13.76c-2.84991,0 -5.50208,0.88173 -7.7064,2.38515c-1.8831,-5.36259 -6.95471,-9.26515 -12.9336,-9.26515c-3.44857,0 -6.52594,1.4058 -8.94937,3.52735c-2.39633,-4.08089 -6.64852,-6.96735 -11.69063,-6.96735c-2.55474,0 -4.82243,0.90011 -6.88,2.12985v-9.35922c7.25824,-4.21585 12.41275,-11.60711 13.50469,-20.29063h50.48469l-11.38828,11.5025c-0.89444,0.86667 -1.25064,2.14907 -0.93129,3.35288c0.31934,1.20381 1.26436,2.14103 2.47078,2.45038c1.20641,0.30936 2.48582,-0.05746 3.34505,-0.95905l16.90437,-17.06562c0.24031,-0.18587 0.45493,-0.40276 0.63828,-0.645l2.05594,-2.0761l-2.06937,-2.08953c-0.18173,-0.23944 -0.39406,-0.45403 -0.63156,-0.63828l-16.52813,-16.68937c-0.64377,-0.66903 -1.53062,-1.04945 -2.45906,-1.05484c-1.39994,-0.00774 -2.66495,0.83359 -3.1991,2.12764c-0.53415,1.29405 -0.23089,2.78272 0.76691,3.7647l11.02547,11.13969h-50.46453c-1.70405,-13.54195 -13.29331,-24.08 -27.28485,-24.08zM72.24,13.76c11.30375,0 20.40438,8.98679 20.61985,20.23688c-0.03227,0.26091 -0.03452,0.52467 -0.00672,0.78609c-0.00001,0.00448 -0.00001,0.00896 0,0.01344c-0.11377,5.95691 -2.7304,11.25884 -6.85313,14.9425v-15.3389c0,-7.55883 -6.20117,-13.76 -13.76,-13.76c-7.55883,0 -13.76,6.20117 -13.76,13.76v15.34563c-4.21566,-3.76562 -6.88,-9.22236 -6.88,-15.34563c0,-11.43993 9.20007,-20.64 20.64,-20.64zM72.24,27.52c3.84133,0 6.88,3.03867 6.88,6.88v21.6411v23.0789v6.88c-0.00818,0.57542 0.12811,1.1437 0.3964,1.65281c0.05327,0.10139 0.11158,0.20005 0.17469,0.29562c0.06458,0.09754 0.1341,0.19173 0.20828,0.28219c0.07203,0.08655 0.14827,0.16952 0.22844,0.24859c0.08109,0.08263 0.16631,0.16112 0.25531,0.23515c0.17739,0.14407 0.3687,0.27011 0.57109,0.37625c0.30565,0.16259 0.63409,0.2781 0.97422,0.34265c0.22607,0.04075 0.45565,0.05876 0.68531,0.05375c0.11448,-0.00101 0.22884,-0.00774 0.34265,-0.02016c0.34078,-0.03983 0.67368,-0.13042 0.98766,-0.26875c0.10554,-0.0463 0.2087,-0.09788 0.30906,-0.15453c0.09939,-0.05784 0.19581,-0.12063 0.2889,-0.18813c0.09525,-0.06477 0.18719,-0.13429 0.27547,-0.20828c0.08688,-0.07639 0.16985,-0.15712 0.2486,-0.24187c0.07822,-0.0836 0.15222,-0.17105 0.22172,-0.26203c0.0696,-0.09076 0.13463,-0.18494 0.19484,-0.28219c0.06083,-0.09571 0.11689,-0.19438 0.16797,-0.29563c0.15159,-0.30965 0.25577,-0.64032 0.30906,-0.98094c0.01691,-0.11359 0.02812,-0.22795 0.0336,-0.34266c0.00507,-0.08052 0.00732,-0.1612 0.00672,-0.24187v-6.88c0,-3.84133 3.03867,-6.88 6.88,-6.88c3.84133,0 6.88,3.03867 6.88,6.88v3.44v3.44c-0.00122,0.11437 0.00326,0.22873 0.01344,0.34265c0.00992,0.11494 0.02562,0.2293 0.04703,0.34266c0.10623,0.56725 0.35345,1.09866 0.7189,1.54531c0.29084,0.35405 0.64947,0.64644 1.05485,0.86c0.20344,0.10851 0.41728,0.1963 0.63828,0.26203c0.11056,0.03248 0.22268,0.05939 0.33594,0.08063c0.11347,0.01916 0.22784,0.03261 0.34266,0.04031c0.22809,0.02057 0.45767,0.01832 0.68531,-0.00672c0.45616,-0.05313 0.89706,-0.19705 1.29672,-0.42328c0.09939,-0.05784 0.19581,-0.12063 0.2889,-0.18813c0.09525,-0.06477 0.18719,-0.13429 0.27547,-0.20828c0.08688,-0.07639 0.16985,-0.15712 0.2486,-0.24187c0.15662,-0.16709 0.29617,-0.3494 0.41656,-0.54422c0.12079,-0.19328 0.22206,-0.39809 0.30235,-0.61141c0.0803,-0.21533 0.13882,-0.43816 0.17469,-0.66515c0.01691,-0.11359 0.02812,-0.22795 0.0336,-0.34266c0.00507,-0.08052 0.00732,-0.1612 0.00672,-0.24187v-3.44c0,-3.84133 3.03867,-6.88 6.88,-6.88c3.84133,0 6.88,3.03867 6.88,6.88v6.88v3.44c-0.01754,1.24059 0.63425,2.39452 1.7058,3.01993c1.07155,0.62541 2.39684,0.62541 3.46839,0c1.07155,-0.62541 1.72335,-1.77935 1.7058,-3.01993v-3.44c0,-3.84133 3.03867,-6.88 6.88,-6.88c3.84133,0 6.88,3.03867 6.88,6.88v44.72672c0,13.33854 -10.74094,24.07328 -24.08,24.07328l-25.02735,-0.00672c-10.03578,-0.00315 -19.65131,-3.98319 -26.74734,-11.07922l-39.08969,-39.08969c-2.71791,-2.71791 -2.71791,-7.01084 0,-9.72875c2.71791,-2.71791 7.01084,-2.71791 9.72875,0l23.38125,23.38125c0.90766,1.16545 2.458,1.62139 3.85208,1.13286c1.39408,-0.48854 2.32068,-1.81249 2.3023,-3.28958v-63.37797v-21.78219c0,-3.84133 3.03867,-6.88 6.88,-6.88z"></path></g><path d="" fill="none" stroke="none" stroke-linejoin="miter"></path><path d="" fill="none" stroke="none" stroke-linejoin="miter"></path><path d="" fill="none" stroke="none" stroke-linejoin="miter"></path></g></g></svg>