<!DOCTYPE svg PUBLIC "-//W3C//DTD SVG 20010904//EN" "http://www.w3.org/TR/2001/REC-SVG-20010904/DTD/svg10.dtd">
<svg version="1.0" xmlns="http://www.w3.org/2000/svg" width="32" height="32" viewBox="0 0 2560 2560" preserveAspectRatio="xMidYMid meet">
<g id="layer101" fill="#575E75" stroke="none" transform='scale(0.85,0.85)'>
 <path d="M555 2000 l-560 -560 355 -355 355 -355 -177 -177 c-112 -112 -183 -192 -193 -215 -21 -51 -19 -153 4 -204 22 -49 92 -111 140 -124 48 -13 115 -13 165 2 33 9 77 47 224 192 l182 180 115 -114 115 -115 563 563 562 562 -640 640 c-352 352 -642 640 -645 640 -3 0 -257 -252 -565 -560z m1168 -1162 l-443 -443 -55 55 -55 55 132 132 c119 119 132 136 132 167 0 49 -36 86 -82 86 -32 0 -49 -13 -169 -132 l-133 -132 -54 53 c-48 48 -54 57 -49 86 8 48 -32 90 -85 89 -39 -1 -44 3 -253 212 l-214 214 885 0 885 0 -442 -442z m-962 -502 c-149 -149 -173 -169 -202 -169 -39 0 -69 32 -69 76 0 26 24 55 167 199 l167 168 53 -52 53 -53 -169 -169z"/>
 <path d="M2215 2541 c-82 -38 -135 -120 -135 -208 0 -85 114 -532 212 -833 32 -98 43 -121 49 -105 10 23 135 521 185 740 33 141 34 154 24 218 -15 85 -58 152 -119 184 -57 30 -157 31 -216 4z"/>
 </g>

</svg>