<?xml version="1.0" standalone="no"?>
<!DOCTYPE svg PUBLIC "-//W3C//DTD SVG 20010904//EN"
 "http://www.w3.org/TR/2001/REC-SVG-20010904/DTD/svg10.dtd">
<svg version="1.0" xmlns="http://www.w3.org/2000/svg"
 width="32" height="32" viewBox="0 0 980.000000 976.000000"
 preserveAspectRatio="xMidYMid meet">
<metadata>
Created by potrace 1.15, written by Peter Selinger 2001-2017
</metadata>
<g transform="translate(50.000000,906.000000) scale(0.090000,-0.080000)"
fill="#575E75" stroke="none">
<path d="M9008 9730 c-597 -126 -1834 -601 -2683 -1030 -1589 -804 -2580
-1720 -2760 -2550 -25 -118 -30 -317 -11 -430 49 -278 138 -423 450 -736 380
-379 779 -675 1381 -1024 467 -271 670 -405 791 -525 86 -84 114 -135 114
-205 0 -65 -27 -117 -99 -193 -88 -93 -360 -292 -555 -406 -794 -466 -2846
-1170 -4166 -1430 -321 -63 -503 -88 -749 -101 -205 -11 -262 -23 -390 -86
-202 -99 -331 -290 -331 -489 1 -266 140 -428 420 -490 104 -23 368 -30 542
-16 491 41 1077 166 2178 462 1149 310 1921 571 2589 876 1073 489 1673 1005
1818 1562 32 122 36 312 9 436 -108 497 -594 997 -1451 1495 -827 480 -1437
925 -1561 1136 -31 54 -33 105 -6 166 184 411 1645 1305 3090 1892 241 98 409
160 742 271 336 113 503 182 683 280 224 123 382 240 525 389 228 237 281 452
151 600 -117 133 -457 202 -721 146z"/>
</g>
</svg>
