<?xml version="1.0" standalone="no"?>
<!DOCTYPE svg PUBLIC "-//W3C//DTD SVG 20010904//EN"
 "http://www.w3.org/TR/2001/REC-SVG-20010904/DTD/svg10.dtd">
<svg version="1.0" xmlns="http://www.w3.org/2000/svg"
 width="20" height="20" viewBox="0 0 150 150">
<g transform="translate(-50,90) rotate(37 0 0) scale(0.100000,-0.100000)"
fill="#575E75" stroke="none">
<path d="M959 1581 c-20 -22 -40 -55 -44 -73 -5 -23 -25 -50 -66 -88 -54 -51
-60 -59 -67 -110 -7 -54 -7 -54 -57 -73 -64 -24 -81 -40 -111 -104 -14 -29
-29 -53 -33 -53 -4 0 -26 -16 -49 -36 -55 -47 -70 -99 -47 -161 21 -54 74 -93
128 -93 46 0 113 40 129 78 26 61 48 82 83 82 36 0 55 -20 55 -59 0 -23 44
-61 71 -61 9 0 27 15 38 34 23 36 39 46 76 46 28 0 41 -15 50 -57 8 -41 50
-76 79 -67 12 4 29 15 39 25 21 22 65 25 92 6 17 -13 17 -15 -5 -45 -12 -16
-22 -43 -22 -59 0 -35 -21 -60 -59 -68 -18 -4 -45 -26 -70 -55 -31 -37 -49
-49 -78 -54 -45 -7 -95 -57 -106 -105 -17 -80 25 -161 95 -182 32 -10 47 -9
87 6 84 30 114 118 78 222 -24 68 3 96 68 72 42 -15 84 -5 92 21 4 11 -1 40
-11 65 -16 42 -16 46 0 70 16 24 21 25 61 20 147 -23 233 147 126 249 -55 52
-129 51 -189 -4 -34 -31 -49 -36 -117 -43 -22 -2 -47 -7 -55 -11 -10 -4 -32 9
-65 39 -60 56 -81 62 -142 40 l-48 -17 -60 37 c-60 36 -67 37 -138 20 -35 -9
-81 35 -72 68 11 36 35 47 100 47 57 0 63 2 74 26 9 21 9 39 0 81 -12 51 -11
55 9 76 27 26 75 28 130 3 39 -18 42 -18 87 -1 67 26 90 63 90 148 0 66 -1 70
-37 103 -34 30 -44 34 -94 34 -53 0 -60 -3 -95 -39z"/>
</g>
</svg>
